<?xml version="1.0" standalone="no"?>
<!DOCTYPE svg PUBLIC "-//W3C//DTD SVG 20010904//EN"
 "http://www.w3.org/TR/2001/REC-SVG-20010904/DTD/svg10.dtd">
<svg version="1.0" xmlns="http://www.w3.org/2000/svg"
 width="600.000000pt" height="512.000000pt" viewBox="0 0 600.000000 512.000000"
 preserveAspectRatio="xMidYMid meet">
<g transform="translate(0.000000,512.000000) scale(0.100000,-0.100000)"
fill="#b0b0b0" stroke="none">
<path d="M1175 4880 c-59 -14 -142 -58 -163 -84 -34 -44 -45 -92 -38 -165 3
-36 8 -88 10 -116 4 -57 16 -88 48 -128 26 -32 37 -143 19 -190 -21 -55 -111
-95 -265 -117 -53 -8 -65 -14 -113 -62 -30 -29 -63 -69 -73 -88 -37 -74 -50
-194 -29 -288 8 -39 7 -61 -5 -103 -8 -30 -22 -110 -31 -178 -10 -81 -25 -146
-41 -185 -50 -120 -75 -202 -85 -281 -23 -192 -62 -309 -116 -351 -19 -14 -44
-47 -55 -73 -10 -25 -26 -60 -35 -78 -41 -88 -5 -139 42 -59 15 25 28 46 30
46 1 0 -10 -41 -26 -92 -31 -99 -35 -133 -18 -144 16 -9 35 14 58 71 l20 50
-2 -85 c-2 -84 -2 -85 23 -85 23 0 25 5 36 68 14 86 24 96 24 24 0 -68 7 -87
30 -87 22 0 30 19 30 73 l1 42 13 -31 c17 -38 30 -48 44 -31 9 10 16 261 11
365 -1 13 20 62 45 110 153 291 186 376 186 483 0 41 8 73 27 115 l27 59 8
-55 c4 -30 7 -138 6 -240 0 -179 -1 -187 -29 -261 -44 -114 -69 -263 -69 -404
0 -229 40 -529 85 -636 20 -47 27 -88 36 -206 11 -157 10 -170 -23 -303 -31
-129 -24 -167 88 -440 41 -100 48 -126 52 -206 5 -97 -2 -132 -45 -219 -39
-80 -26 -94 107 -110 25 -3 63 -8 85 -11 22 -3 51 -5 65 -6 29 0 64 39 54 61
-3 9 -10 28 -15 43 -5 16 -14 43 -20 60 -6 18 -16 60 -21 93 -5 33 -14 85 -19
115 -23 134 -30 275 -18 391 10 94 10 130 -1 190 -22 125 -22 153 -1 260 11
57 25 167 30 244 6 77 19 190 30 250 11 61 23 151 27 200 9 107 10 104 54
-145 16 -96 33 -224 36 -285 3 -60 17 -162 30 -225 28 -135 30 -189 8 -254
-12 -35 -15 -67 -10 -129 17 -227 18 -395 3 -448 -9 -30 -19 -85 -23 -124 -4
-38 -14 -95 -24 -125 -45 -143 -45 -138 -25 -160 15 -17 27 -18 94 -14 78 5
125 11 151 21 8 3 21 7 28 9 44 9 52 43 23 107 -10 23 -23 55 -30 70 -6 15
-11 67 -11 116 0 93 15 146 110 395 37 97 42 119 41 193 0 60 -7 110 -26 175
-24 83 -25 98 -16 153 6 34 11 93 11 131 1 69 9 116 50 274 33 130 50 279 50
457 0 218 -14 308 -75 468 -23 62 -27 85 -29 215 -1 80 3 181 10 225 l11 80
26 -55 c20 -40 27 -71 27 -115 0 -34 7 -88 15 -120 19 -71 90 -225 134 -288
58 -84 71 -136 77 -291 2 -77 4 -166 4 -198 -1 -31 4 -59 10 -63 15 -10 40 13
41 39 1 11 6 1 11 -24 22 -102 60 -89 68 23 l5 72 15 -80 c13 -70 18 -80 38
-83 30 -5 35 15 25 98 -5 38 -8 70 -6 70 2 0 14 -24 27 -54 27 -61 41 -73 61
-56 20 17 15 40 -46 193 -10 26 -17 47 -15 47 1 0 17 -23 35 -51 36 -58 67
-65 65 -13 -2 53 -63 176 -113 229 -64 67 -93 156 -121 369 -7 52 -26 117 -55
188 -42 104 -53 147 -91 367 -14 82 -15 106 -4 177 7 45 10 104 6 131 -22 164
-117 293 -216 293 -43 0 -185 37 -230 60 -62 31 -75 91 -41 188 10 29 28 63
40 75 25 28 49 130 34 149 -6 7 -10 52 -10 99 0 116 -21 156 -107 197 -66 31
-143 44 -191 32z m152 -33 c68 -31 112 -75 123 -123 13 -53 13 -107 0 -99 -5
3 -10 1 -10 -4 0 -6 5 -11 11 -11 14 0 7 -42 -7 -47 -7 -2 -13 12 -16 36 -2
21 0 37 4 35 5 -3 8 0 8 6 0 6 -6 13 -14 16 -8 3 -21 23 -30 44 -8 21 -20 41
-25 45 -6 3 -9 0 -6 -7 13 -33 -49 -45 -237 -47 -58 -1 -76 -22 -85 -100 l-6
-52 -18 38 c-9 21 -18 31 -18 23 -1 -9 4 -21 11 -28 8 -8 8 -12 1 -12 -23 0
-24 27 -7 120 4 19 2 22 -6 10 -19 -29 -11 29 11 71 17 34 32 46 92 74 89 42
153 45 224 12z m53 -136 c0 -12 -56 -34 -72 -28 -8 3 -5 6 7 7 11 0 29 7 39
15 23 17 26 18 26 6z m20 -58 c20 -33 21 -48 18 -152 -5 -154 -29 -220 -96
-262 -54 -34 -106 -38 -160 -10 -50 25 -65 45 -91 114 -34 93 -25 287 16 328
7 7 37 7 104 0 86 -9 159 -4 176 13 9 9 9 9 33 -31z m-413 -15 c-3 -8 -6 -5
-6 6 -1 11 2 17 5 13 3 -3 4 -12 1 -19z m37 -120 c-4 -6 -1 -14 6 -18 9 -6 10
-12 1 -26 -9 -17 -10 -17 -11 -1 0 9 -5 17 -11 17 -7 0 -9 10 -5 26 5 18 3 24
-5 18 -8 -4 -9 -3 -5 5 6 9 11 9 22 0 7 -6 11 -16 8 -21z m437 23 c-9 -6 -10
-11 -2 -15 14 -9 14 -37 -1 -73 -6 -15 -10 -32 -9 -38 1 -5 -3 -5 -9 1 -9 9
-8 18 5 37 12 20 14 30 6 44 -9 16 -11 14 -12 -12 -1 -18 -3 -23 -6 -12 -3 10
-1 26 3 35 7 16 9 23 13 37 0 3 7 5 14 5 9 0 8 -3 -2 -9z m-427 -107 c9 -24 7
-28 -9 -14 -17 14 -20 30 -6 30 5 0 12 -7 15 -16z m110 -259 c17 -53 36 -89
36 -68 0 7 -9 35 -19 63 -11 27 -15 50 -11 50 5 0 12 -4 15 -10 9 -15 128 -12
144 3 10 10 11 6 5 -18 -4 -16 -11 -40 -15 -53 -12 -30 -11 -45 0 -37 5 3 15
31 22 63 15 65 40 95 50 59 3 -12 2 -24 -1 -27 -12 -9 -22 -92 -10 -85 5 3 10
23 10 43 l1 37 21 -29 c26 -35 102 -70 187 -87 81 -15 68 -28 -46 -45 -118
-18 -116 -18 -132 18 -8 18 -16 27 -18 21 -3 -7 1 -22 7 -33 14 -26 14 -25
-27 -33 -26 -5 -31 -3 -26 8 3 8 1 15 -5 15 -5 0 -12 -9 -15 -20 -4 -15 0 -20
13 -20 48 0 288 44 307 56 49 31 117 7 168 -60 31 -41 71 -152 77 -216 3 -25
2 -36 -1 -25 -3 13 -7 5 -11 -25 -5 -41 -7 -45 -35 -48 -37 -4 -90 30 -121 76
-13 18 -25 28 -28 23 -4 -5 -2 -12 4 -16 23 -14 9 -54 -35 -96 -25 -24 -48
-53 -51 -64 -25 -79 -116 -129 -238 -129 -69 0 -76 -1 -60 -14 14 -10 38 -12
98 -8 44 3 82 9 85 13 3 5 17 9 31 9 14 1 35 5 47 9 31 10 42 -34 19 -81 -20
-44 -20 -47 4 -39 14 4 20 2 20 -8 0 -8 -9 -26 -20 -40 -22 -27 -27 -48 -8
-29 32 32 39 -11 8 -51 -25 -32 -25 -41 -1 -27 11 5 22 6 25 2 3 -5 6 -80 8
-168 2 -188 -2 -202 -89 -263 -58 -41 -210 -198 -200 -207 2 -3 36 29 73 71
38 41 97 96 132 122 34 25 67 53 72 62 7 14 9 14 13 1 3 -8 21 -59 41 -112 20
-54 36 -103 35 -110 0 -10 -2 -10 -6 0 -2 6 -9 12 -14 12 -5 0 0 -18 12 -39
37 -72 46 -332 18 -541 -15 -113 -77 -369 -97 -400 -12 -19 -12 -22 -1 -13 12
10 14 -1 11 -70 -2 -45 -7 -102 -12 -127 -9 -47 -5 -75 30 -200 28 -100 23
-187 -20 -295 -17 -44 -28 -69 -25 -55 3 14 8 66 10 115 l4 90 -13 -100 c-17
-130 -21 -148 -65 -290 -26 -81 -36 -132 -33 -158 3 -31 2 -36 -12 -31 -18 7
-21 20 -6 29 5 3 10 12 10 18 0 8 -3 9 -8 1 -4 -5 -18 -18 -32 -27 -21 -15
-22 -17 -6 -17 27 0 56 -29 56 -56 0 -13 11 -48 24 -79 14 -30 23 -55 20 -55
-3 0 2 -10 10 -22 19 -27 4 -62 -23 -53 -12 3 -21 0 -25 -10 -8 -21 -38 -19
-34 2 2 10 9 19 16 19 29 3 32 4 32 12 0 5 -7 17 -16 28 -15 18 -15 18 -9 -3
8 -29 -20 -32 -42 -5 -13 16 -14 15 -10 -5 7 -33 -8 -37 -34 -11 -17 18 -20
19 -16 6 10 -27 -22 -22 -33 4 -7 18 -9 19 -9 5 -1 -14 -7 -16 -28 -11 -23 4
-25 3 -13 -6 13 -10 12 -11 -3 -6 -10 3 -20 6 -21 6 -2 0 0 17 5 38 18 82 35
128 54 143 76 63 83 78 26 58 -18 -6 -35 -9 -38 -5 -4 3 3 44 15 91 25 96 29
258 11 380 -15 102 -13 159 7 235 16 64 16 74 1 167 -9 54 -20 109 -24 123 -6
22 -5 24 10 11 10 -8 17 -9 17 -3 0 6 -8 16 -17 21 -16 9 -16 10 -1 11 29 0
78 70 77 110 l-1 35 -9 -41 c-5 -23 -22 -53 -38 -68 -25 -24 -29 -25 -41 -10
-21 24 -20 191 1 283 36 154 80 392 76 404 -6 15 -8 9 -41 -113 -37 -142 -59
-259 -52 -291 3 -16 1 -29 -4 -29 -6 0 -10 1 -10 3 0 1 -14 81 -31 177 -17 96
-33 199 -36 228 -3 29 -9 54 -12 57 -4 2 -17 -78 -30 -178 -24 -196 -48 -323
-50 -272 -4 78 -56 303 -68 291 -3 -3 4 -40 15 -83 57 -213 64 -483 12 -483
-13 0 -39 42 -56 88 l-13 37 -1 -33 c0 -40 54 -106 82 -99 15 4 15 1 -5 -22
l-22 -28 -7 25 c-4 14 -18 37 -31 51 -14 14 -26 33 -29 41 -3 9 -7 10 -11 3
-4 -6 9 -30 28 -53 38 -46 44 -82 19 -118 -32 -45 -99 -23 -154 51 -16 23 -30
35 -30 27 0 -15 39 -70 83 -118 54 -56 84 -42 130 60 44 99 46 81 13 -108 -15
-84 -15 -99 -1 -165 12 -60 14 -115 9 -284 -5 -169 -3 -227 10 -299 9 -48 13
-92 10 -97 -3 -6 -1 -15 4 -22 5 -7 10 -29 10 -49 1 -21 9 -52 17 -68 9 -17
18 -43 20 -58 2 -15 5 -33 7 -41 2 -9 -6 -16 -17 -18 l-20 -3 20 10 c16 8 13
9 -17 7 -32 -3 -38 0 -39 18 0 20 0 20 -8 0 -5 -11 -7 -23 -4 -27 2 -4 -3 -5
-11 -2 -8 3 -12 12 -10 19 3 7 1 16 -5 20 -7 3 -11 -2 -11 -14 0 -15 -6 -21
-21 -21 -16 0 -19 4 -14 20 4 11 2 20 -4 20 -6 0 -11 -9 -11 -20 0 -14 -7 -20
-21 -20 -16 0 -19 4 -14 20 11 34 -5 22 -21 -15 -13 -33 -16 -34 -37 -23 l-22
13 23 3 c12 2 20 7 17 12 -3 5 -13 6 -23 3 -16 -6 -16 -5 -1 13 14 17 39 93
54 167 3 16 18 35 34 45 l28 17 -23 18 c-23 17 -34 11 -14 -9 6 -6 3 -13 -8
-20 -15 -10 -17 -7 -17 22 0 17 3 30 8 27 10 -6 10 -6 -27 108 -44 134 -76
285 -76 354 0 35 -4 55 -11 55 -15 0 -6 -105 16 -190 9 -34 14 -64 12 -66 -2
-3 -19 35 -37 83 -45 124 -48 183 -15 317 26 107 27 112 16 250 -15 181 -15
183 -39 236 -47 103 -86 418 -80 655 3 139 6 166 26 210 13 30 16 42 6 30 -15
-19 -15 -19 -8 10 3 17 19 64 35 105 16 41 29 81 29 88 0 9 11 4 31 -12 17
-14 37 -26 46 -26 8 0 49 -36 90 -80 42 -44 80 -80 86 -80 20 0 -138 156 -181
178 -68 36 -74 60 -66 263 l7 170 24 -5 23 -6 -20 32 c-21 35 -26 68 -11 68 6
0 13 -5 16 -10 4 -6 10 -8 15 -5 5 3 -2 16 -16 30 -13 13 -24 31 -24 40 0 18
5 19 31 5 23 -13 23 -11 4 26 -16 31 -21 104 -6 104 5 0 25 -7 46 -16 42 -17
189 -30 230 -20 46 12 19 19 -62 17 -111 -2 -164 24 -228 113 l-47 66 -54 0
c-89 0 -155 -38 -168 -97 -4 -18 -3 -34 3 -38 7 -4 11 5 11 24 0 36 27 66 76
87 53 22 67 18 89 -28 17 -36 20 -61 18 -174 -1 -122 -3 -135 -29 -185 -22
-43 -29 -74 -34 -150 -6 -81 -13 -109 -49 -191 -24 -53 -65 -135 -92 -183 -27
-48 -57 -105 -66 -128 -20 -52 -20 -52 -35 -40 -19 14 -48 24 -48 15 0 -4 14
-13 31 -19 17 -7 28 -17 24 -22 -3 -6 -1 -19 4 -30 13 -23 2 -336 -11 -323 -4
4 -14 34 -20 65 -11 52 -11 58 7 72 19 15 18 16 -14 9 -19 -3 -53 -6 -75 -7
-23 0 -33 -2 -23 -4 9 -3 17 -5 17 -7 0 -14 -40 -179 -44 -184 -22 -22 -23 98
-1 185 4 16 0 23 -16 28 -11 4 -23 4 -26 1 -4 -3 1 -6 10 -6 10 0 17 -2 17 -4
0 -14 -74 -156 -81 -156 -13 0 -13 1 28 134 21 66 39 112 41 102 4 -16 10 -18
56 -12 29 3 66 2 84 -3 20 -6 32 -6 32 0 0 5 -6 9 -13 9 -7 0 -14 11 -15 25
-1 14 -8 41 -16 60 -18 42 -49 47 -68 10 -7 -13 -29 -36 -47 -50 -33 -24 -35
-24 -54 -7 -19 16 -20 16 -8 -6 13 -25 6 -46 -11 -36 -7 5 -9 2 -6 -8 4 -8 -4
-28 -18 -44 -36 -44 -31 -8 12 89 25 59 48 93 80 122 38 35 47 51 69 127 13
48 31 138 39 200 14 109 37 192 69 254 29 58 46 123 62 246 9 68 22 148 30
177 14 55 10 161 -7 172 -6 4 -8 15 -6 25 3 13 10 4 22 -29 13 -32 26 -49 41
-53 28 -7 80 15 123 50 l32 28 0 -25 c0 -13 7 -30 15 -37 10 -9 15 -9 15 -1 0
6 -4 11 -10 11 -13 0 -13 56 0 81 16 29 3 23 -31 -16 -44 -50 -92 -77 -131
-73 -24 2 -34 9 -36 23 -2 11 -11 34 -19 52 -17 37 -7 107 26 171 30 59 114
132 151 132 53 0 173 31 222 58 60 32 81 64 82 124 l1 46 27 -31 c15 -18 34
-54 42 -82z m652 -511 c19 -8 45 -12 56 -8 17 5 19 3 12 -18 -4 -12 -8 -31 -8
-40 0 -9 -4 -14 -8 -12 -4 3 -8 -2 -8 -10 0 -22 -3 -21 -48 24 -51 51 -96 55
-144 10 -18 -16 -27 -30 -20 -30 7 0 10 -5 6 -11 -9 -15 -6 -177 6 -224 12
-52 -5 -136 -26 -128 -9 3 -11 10 -6 17 18 23 20 56 5 65 -11 6 -12 10 -4 15
17 11 14 56 -4 56 -12 0 -13 4 -5 19 13 25 13 67 0 91 -9 18 -13 18 -46 4 -20
-8 -39 -13 -42 -10 -3 3 0 6 7 6 22 0 102 82 96 99 -3 11 13 34 45 66 28 27
50 57 50 67 0 14 4 13 25 -8 14 -14 41 -32 61 -40z m-988 -46 c13 -13 15 -207
3 -263 -3 -16 -6 24 -6 90 0 93 -4 127 -17 153 -17 33 -5 45 20 20z m952 -5
c41 -28 60 -57 56 -81 -5 -34 11 -36 19 -2 16 74 36 25 60 -150 16 -115 24
-145 83 -300 27 -71 45 -136 52 -195 11 -87 29 -172 53 -245 6 -19 32 -57 58
-85 64 -68 126 -198 117 -242 -3 -14 -9 -11 -25 16 -12 18 -19 41 -16 50 4 9
3 13 -2 9 -16 -15 -35 13 -24 33 6 13 6 19 -1 19 -5 0 -10 -4 -10 -10 0 -23
-33 -7 -77 36 -36 37 -50 45 -62 37 -24 -15 -42 -55 -38 -85 3 -22 -1 -28 -15
-28 -10 0 -18 -4 -18 -9 0 -4 18 -5 40 -1 23 4 62 6 88 4 36 -3 41 -2 22 5
-14 5 -44 9 -67 10 -29 1 -43 5 -43 15 0 17 28 86 36 86 9 0 88 -85 86 -92 -1
-4 4 -5 11 -3 8 3 25 -35 50 -113 40 -126 42 -132 28 -132 -16 0 -87 153 -73
158 7 2 12 7 12 12 0 5 -14 2 -31 -7 -17 -8 -49 -15 -72 -15 -27 1 -37 -2 -27
-8 8 -5 18 -6 24 -3 10 7 2 -175 -9 -185 -13 -13 -23 24 -30 109 -5 76 -9 89
-26 94 -11 4 -23 5 -26 2 -2 -3 5 -8 17 -12 23 -7 23 -15 -2 -109 -17 -67 -23
-25 -23 154 0 170 0 171 25 191 20 17 21 20 5 14 -11 -3 -23 -7 -28 -8 -4 -1
-18 24 -31 56 -14 32 -36 76 -49 96 -32 48 -105 193 -124 246 -8 22 -18 84
-23 137 -7 82 -14 110 -44 173 -24 50 -35 87 -34 112 l1 38 4 -35 c3 -19 9
-39 15 -45 7 -7 8 -2 3 15 -4 13 -8 58 -8 100 0 58 5 85 21 117 12 23 22 48
22 55 -2 32 -50 -87 -59 -143 l-10 -64 4 85 c4 99 10 119 39 130 32 13 49 12
76 -7z m-835 -113 c36 -24 26 -26 -16 -5 -16 9 -34 13 -39 10 -13 -8 -13 -91
0 -115 8 -15 6 -17 -10 -13 -16 4 -20 0 -20 -20 0 -14 5 -29 11 -32 6 -5 4
-11 -7 -19 -16 -12 -16 -15 0 -46 19 -40 19 -37 1 -37 -21 0 -29 37 -21 105 3
31 9 103 12 160 l7 102 26 -35 c14 -20 40 -44 56 -55z m-499 -1035 c23 -56 20
-62 -38 -68 -66 -6 -82 6 -46 36 14 12 31 32 37 45 16 31 30 28 47 -13z m1709
-267 c5 -60 3 -88 -4 -88 -6 0 -13 10 -16 23 -29 131 -35 159 -35 162 0 9 36
10 41 0 4 -5 10 -49 14 -97z m-1697 17 c-4 -81 -11 -106 -24 -92 -3 3 -9 44
-11 91 -6 84 -5 86 17 86 22 0 22 -2 18 -85z m919 -247 c-3 -8 -6 -5 -6 6 -1
11 2 17 5 13 3 -3 4 -12 1 -19z m-10 -60 c-3 -7 -5 -2 -5 12 0 14 2 19 5 13 2
-7 2 -19 0 -25z m-10 -50 c-3 -7 -5 -2 -5 12 0 14 2 19 5 13 2 -7 2 -19 0 -25z
m-311 -446 c32 4 33 3 17 -14 -21 -24 -32 -23 -68 8 -24 20 -25 23 -6 14 13
-7 38 -10 57 -8z m330 -947 c-16 -14 -31 -23 -33 -21 -8 7 10 35 25 39 35 9
36 6 8 -18z m-206 -216 c0 -7 11 -9 30 -5 23 4 30 2 30 -9 0 -23 -46 -41 -65
-25 -17 14 -21 50 -5 50 6 0 10 -5 10 -11z m-156 -5 c18 -7 12 -24 -10 -24 -8
0 -14 7 -14 15 0 17 2 18 24 9z m60 0 c19 -7 22 -34 4 -34 -22 0 -41 17 -34
29 8 13 9 13 30 5z m66 -21 c0 -20 -34 -12 -38 9 -2 12 2 15 17 11 12 -3 21
-12 21 -20z m224 9 c-1 -6 -2 -17 -2 -23 -1 -5 -17 -9 -34 -7 -24 2 -34 9 -36
23 -2 17 3 20 35 20 24 0 38 -5 37 -13z m53 -17 c-4 -8 -13 -15 -22 -15 -21 0
-19 28 3 32 22 5 26 2 19 -17z m63 13 c0 -4 -9 -12 -19 -17 -15 -8 -20 -7 -23
7 -4 12 1 17 19 17 12 0 23 -3 23 -7z"/>
<path d="M1082 4584 c-29 -20 -29 -39 0 -23 13 7 41 9 75 5 57 -7 73 7 27 24
-37 14 -76 12 -102 -6z m66 -1 c-10 -2 -26 -2 -35 0 -10 3 -2 5 17 5 19 0 27
-2 18 -5z"/>
<path d="M1283 4593 c-16 -3 -24 -14 -29 -38 -3 -19 -4 -40 -1 -47 3 -7 6 1 6
18 1 24 6 33 24 38 34 9 90 7 107 -4 13 -9 13 -11 0 -20 -9 -6 -18 -6 -24 0
-14 14 -60 12 -74 -2 -19 -19 -15 -26 18 -33 34 -7 100 26 100 50 0 34 -59 51
-127 38z m75 -10 c-10 -2 -28 -2 -40 0 -13 2 -5 4 17 4 22 1 32 -1 23 -4z"/>
<path d="M1108 4539 c-24 -13 -23 -26 2 -34 26 -8 82 4 74 16 -3 5 -10 7 -15
4 -5 -3 -6 1 -3 9 7 19 -30 22 -58 5z m12 -19 c0 -5 -2 -10 -4 -10 -3 0 -8 5
-11 10 -3 6 -1 10 4 10 6 0 11 -4 11 -10z"/>
<path d="M1204 4507 l-2 -42 11 33 c6 20 6 36 1 42 -5 5 -10 -8 -10 -33z"/>
<path d="M1250 4470 c0 -7 -6 -10 -13 -7 -19 7 -60 -30 -53 -48 8 -21 94 -21
103 1 3 8 0 21 -7 27 -10 10 -12 8 -7 -5 4 -13 1 -18 -11 -20 -73 -6 -86 -2
-57 22 8 6 23 9 33 6 21 -7 39 18 22 29 -6 4 -10 1 -10 -5z"/>
<path d="M1220 4377 c0 -7 -16 -19 -36 -26 l-36 -13 23 -16 c27 -19 102 -20
124 -2 14 11 13 14 -2 26 -10 7 -26 14 -35 14 -10 0 -18 7 -18 15 0 8 -4 15
-10 15 -5 0 -10 -6 -10 -13z m50 -33 c0 -2 -19 -4 -42 -3 -35 1 -38 2 -18 8
23 7 60 4 60 -5z m-7 -21 c-13 -2 -35 -2 -50 0 -16 2 -5 4 22 4 28 0 40 -2 28
-4z"/>
<path d="M1090 4194 c0 -12 11 -59 24 -104 l24 -82 -31 6 c-42 8 -44 12 -23
46 9 17 13 30 7 30 -5 0 -15 -15 -22 -34 l-12 -33 -66 12 c-60 12 -81 12 -70
1 2 -3 47 -12 99 -21 52 -9 105 -19 117 -21 l21 -6 -24 76 c-13 42 -24 87 -24
99 0 12 -5 29 -10 37 -8 12 -10 11 -10 -6z"/>
<path d="M1340 4075 c-6 -15 -8 -30 -6 -33 3 -3 10 8 16 23 6 15 8 30 6 33 -3
3 -10 -8 -16 -23z"/>
<path d="M1186 4040 c9 -51 32 -90 47 -84 16 6 57 76 57 95 -1 8 -8 1 -17 -16
-8 -16 -24 -38 -34 -48 -19 -17 -19 -17 -29 8 -6 15 -10 32 -10 38 0 7 -5 19
-11 27 -7 11 -8 6 -3 -20z"/>
<path d="M878 3928 c-28 -43 -59 -109 -56 -120 2 -5 20 23 41 63 36 71 44 102
15 57z"/>
<path d="M1230 3851 c0 -28 4 -51 9 -51 11 0 10 89 -1 96 -4 3 -8 -18 -8 -45z"/>
<path d="M1220 3594 c0 -47 4 -73 10 -69 6 3 10 37 10 76 0 39 -4 69 -10 69
-6 0 -10 -32 -10 -76z"/>
<path d="M913 3574 c-8 -21 30 -59 51 -51 19 7 21 38 4 55 -17 17 -48 15 -55
-4z m47 -9 c7 -9 10 -18 6 -22 -3 -3 -6 -1 -6 6 0 8 -7 10 -20 6 -19 -6 -27 5
-13 18 10 11 19 8 33 -8z"/>
<path d="M1502 3568 c-19 -19 -15 -48 7 -48 23 0 53 28 48 44 -5 16 -40 19
-55 4z m43 -7 c3 -5 0 -13 -6 -17 -8 -4 -9 -3 -5 4 4 7 1 12 -9 12 -11 0 -15
-5 -11 -15 3 -8 1 -15 -4 -15 -11 0 -13 23 -3 33 9 10 31 9 38 -2z"/>
<path d="M1219 3295 l-4 -140 -60 -5 c-55 -5 -57 -6 -27 -13 17 -5 46 -5 63
-2 l32 7 -7 -106 c-5 -73 -4 -106 3 -106 7 0 11 37 11 103 l0 102 55 -3 c37
-3 55 0 55 8 0 8 -10 9 -29 5 -16 -3 -40 -3 -55 1 -26 6 -26 7 -26 100 0 87 8
112 26 83 7 -11 91 -7 141 7 21 6 23 4 17 -27 -3 -19 -14 -64 -25 -101 -11
-39 -19 -97 -19 -142 0 -41 -4 -97 -9 -123 -14 -70 -20 -226 -8 -214 6 6 11
50 13 98 3 109 28 365 37 380 11 17 39 173 33 186 -2 7 -5 2 -5 -10 -1 -27
-45 -43 -121 -43 -65 0 -76 9 -82 60 -3 19 -6 -28 -9 -105z"/>
<path d="M1041 3277 c21 -104 28 -178 34 -333 4 -109 10 -205 14 -212 8 -14 6
138 -4 303 -5 96 -26 243 -42 298 -4 16 -2 17 14 9 35 -19 117 -24 137 -9 17
12 13 13 -37 9 -69 -5 -115 11 -123 44 -3 13 -9 24 -13 24 -4 0 5 -60 20 -133z"/>
<path d="M940 3340 c-9 -6 -10 -10 -3 -10 6 0 15 5 18 10 8 12 4 12 -15 0z"/>
<path d="M556 3213 c9 -45 36 -103 48 -104 20 -2 41 3 51 12 6 6 -2 7 -21 3
-28 -5 -32 -3 -45 28 -13 33 -15 37 -17 71 -1 9 -7 17 -12 17 -6 0 -8 -12 -4
-27z"/>
<path d="M592 3170 c22 -35 74 -44 110 -18 15 10 28 24 28 30 0 7 -10 2 -23
-10 -30 -28 -74 -28 -106 1 l-25 22 16 -25z"/>
<path d="M1125 2894 c11 -8 34 -14 50 -12 l30 3 6 -115 c5 -104 5 -109 9 -45
2 39 5 86 5 106 2 43 12 62 28 52 17 -11 60 -4 76 12 12 12 9 13 -22 3 -29 -9
-42 -8 -62 2 -21 11 -29 11 -50 0 -19 -10 -30 -11 -50 -2 -35 16 -44 14 -20
-4z m112 0 c-3 -3 -12 -4 -19 -1 -8 3 -5 6 6 6 11 1 17 -2 13 -5z"/>
<path d="M1536 2862 c-3 -5 1 -9 9 -9 8 0 12 4 9 9 -3 4 -7 8 -9 8 -2 0 -6 -4
-9 -8z"/>
<path d="M1290 2636 c0 -2 8 -10 18 -17 15 -13 16 -12 3 4 -13 16 -21 21 -21
13z"/>
<path d="M1440 1597 c0 -7 -13 -26 -29 -41 -40 -38 -45 -76 -18 -127 28 -54
58 -74 86 -59 23 12 124 141 116 148 -2 3 -15 -8 -27 -24 -45 -57 -69 -74
-109 -74 -28 0 -42 6 -53 22 -27 39 -21 62 40 146 10 13 12 22 5 22 -6 0 -11
-6 -11 -13z m47 -188 c28 13 28 13 9 -8 -11 -12 -27 -21 -36 -21 -9 0 -25 9
-36 21 -19 21 -19 21 9 8 21 -10 33 -10 54 0z"/>
<path d="M909 1278 c36 -55 88 -161 96 -195 10 -50 25 -39 25 17 0 28 9 76 21
108 25 67 31 102 18 102 -5 0 -9 -5 -9 -10 0 -15 -47 -60 -62 -60 -7 0 -31 16
-53 35 -50 44 -63 44 -36 3z m136 -49 c-14 -32 -25 -73 -25 -99 l0 -45 -24 58
c-14 32 -37 77 -52 100 l-27 42 30 -27 c37 -36 66 -35 95 1 13 15 24 27 26 26
1 -1 -9 -26 -23 -56z"/>
<path d="M1395 1293 c1 -10 9 -35 18 -56 10 -20 20 -59 23 -85 10 -89 15 -113
23 -107 5 2 12 22 16 42 3 21 26 75 51 120 53 98 56 121 8 71 -19 -21 -44 -38
-55 -38 -21 0 -69 42 -69 60 0 5 -4 10 -9 10 -4 0 -7 -8 -6 -17z m85 -73 c5 0
22 12 39 26 l30 25 -35 -58 c-19 -32 -38 -70 -41 -85 -8 -38 -23 -25 -23 20 0
20 -9 56 -20 80 l-20 44 31 -26 c17 -14 34 -26 39 -26z"/>
<path d="M1070 514 c0 -8 57 -64 65 -64 10 0 -37 59 -52 64 -7 3 -13 3 -13 0z"/>
<path d="M1886 3223 c-4 -13 -4 -28 0 -35 4 -7 4 -10 -1 -6 -4 4 -20 -1 -35
-12 -36 -25 -38 -25 -83 6 -21 14 -41 24 -43 21 -6 -6 52 -49 93 -71 31 -16
34 -15 53 4 22 22 33 58 28 91 l-4 24 -8 -22z m-6 -61 c0 -14 -24 -32 -43 -32
-17 0 -17 2 4 20 26 21 39 25 39 12z"/>
<path d="M2025 2551 c-3 -5 -2 -12 3 -15 5 -3 9 1 9 9 0 17 -3 19 -12 6z"/>
<path d="M963 4865 c0 -8 4 -12 9 -9 5 3 6 10 3 15 -9 13 -12 11 -12 -6z"/>
<path d="M4636 4872 c-3 -5 1 -9 9 -9 8 0 12 4 9 9 -3 4 -7 8 -9 8 -2 0 -6 -4
-9 -8z"/>
<path d="M4715 4857 c-112 -47 -126 -58 -152 -114 -23 -49 -25 -65 -20 -131 4
-48 2 -81 -6 -93 -14 -23 15 -122 42 -141 27 -19 43 -83 39 -163 l-3 -70 -75
-37 c-76 -37 -125 -52 -214 -63 -42 -6 -57 -14 -102 -59 -42 -43 -56 -66 -73
-121 -33 -105 -37 -166 -16 -235 17 -57 17 -62 1 -102 -10 -26 -21 -94 -26
-168 -12 -161 -15 -171 -66 -260 -35 -61 -45 -90 -53 -155 -6 -44 -15 -115
-21 -159 -6 -43 -24 -120 -42 -170 -24 -72 -39 -99 -72 -131 -23 -22 -50 -58
-59 -80 -10 -22 -22 -48 -27 -57 -14 -25 -12 -105 2 -114 14 -9 58 40 58 66 0
10 4 21 9 24 11 7 0 -44 -28 -134 -26 -83 -26 -100 -1 -100 14 0 29 17 50 58
32 62 32 62 16 -48 -7 -42 5 -63 30 -58 15 2 22 20 35 83 l15 80 8 -65 c9 -73
21 -97 42 -79 10 8 14 37 15 93 1 78 2 79 11 36 14 -65 27 -92 41 -87 8 3 12
34 13 103 1 54 5 129 9 165 5 43 4 73 -4 86 -13 25 12 94 69 188 107 175 135
254 145 408 5 76 11 106 30 139 15 26 26 37 28 28 2 -8 12 -40 21 -70 14 -45
16 -68 8 -130 -6 -48 -6 -95 1 -130 9 -52 8 -60 -25 -135 -19 -44 -46 -123
-59 -175 -21 -84 -24 -115 -23 -266 2 -203 15 -314 56 -472 47 -184 57 -241
58 -328 0 -45 4 -104 10 -133 8 -41 6 -62 -10 -114 -50 -162 -43 -253 36 -454
46 -117 84 -258 104 -380 10 -62 9 -80 -4 -121 -9 -27 -28 -60 -41 -72 -24
-23 -33 -54 -17 -64 4 -2 65 -7 135 -11 115 -7 129 -6 147 10 25 23 25 52 0
90 -15 23 -19 40 -14 75 4 31 0 58 -11 84 -40 95 -65 429 -36 499 16 41 14
184 -5 263 -16 70 -13 121 11 178 24 57 55 276 56 390 0 128 31 350 42 301 14
-71 27 -181 38 -330 13 -197 32 -318 59 -376 24 -53 25 -89 5 -166 -20 -75
-19 -163 2 -295 15 -94 15 -122 4 -235 -13 -127 -34 -227 -53 -250 -6 -7 -7
-33 -4 -60 5 -37 2 -57 -13 -87 -15 -28 -18 -44 -10 -57 19 -36 45 -41 172
-33 146 8 159 17 111 73 -14 17 -34 53 -44 80 -18 49 -17 50 12 197 28 143 37
174 109 369 31 83 34 99 34 205 0 90 -5 125 -19 160 -12 27 -19 66 -19 100 1
30 2 82 2 115 1 89 21 222 42 290 38 120 60 254 71 433 17 254 -2 391 -75 561
l-33 76 2 155 c2 139 17 251 33 250 12 -1 50 -71 45 -83 -6 -18 22 -211 40
-269 8 -26 44 -96 79 -156 117 -196 109 -169 112 -397 2 -110 3 -204 4 -208 0
-5 9 -7 19 -5 12 2 20 20 28 63 l12 60 1 -67 c1 -79 7 -98 31 -98 20 0 29 34
31 109 1 44 2 42 23 -39 18 -71 24 -85 41 -85 19 0 20 6 17 80 l-3 80 28 -55
c53 -104 84 -65 43 53 -27 78 -26 92 5 61 35 -35 51 -26 47 27 -4 73 -46 155
-113 219 -50 48 -91 180 -110 353 -15 138 -24 172 -66 243 -50 87 -52 92 -62
249 -6 82 -16 145 -26 170 -15 33 -16 48 -6 88 17 75 13 167 -10 243 -18 58
-30 76 -80 125 -56 53 -64 57 -122 63 -62 6 -158 36 -229 71 -36 18 -37 19
-43 91 -8 80 6 140 36 162 10 6 22 27 28 45 10 30 12 53 9 122 -1 17 2 55 7
86 6 49 4 63 -20 116 -15 34 -36 65 -48 71 -75 35 -105 44 -165 48 -42 2 -78
-1 -97 -9z m207 -32 c18 -10 40 -21 48 -25 8 -4 26 -29 39 -56 19 -40 22 -60
18 -109 -2 -34 -12 -75 -21 -93 -9 -18 -21 -56 -26 -84 -11 -58 -32 -89 -45
-67 -5 7 -4 10 2 6 14 -9 23 15 16 45 -4 18 -3 20 6 8 9 -12 11 -10 10 10 -1
14 2 34 6 44 6 14 5 17 -3 12 -7 -4 -19 -31 -28 -61 -11 -38 -24 -61 -45 -75
-16 -12 -29 -27 -29 -35 0 -7 -6 -16 -12 -18 -9 -4 -8 -6 3 -6 8 -1 28 12 44
29 16 16 30 28 33 26 9 -10 -30 -65 -50 -71 -13 -3 -40 -11 -60 -17 -40 -12
-128 5 -128 24 0 6 7 8 15 4 8 -3 15 -1 15 4 0 5 -9 11 -19 15 -18 5 -51 60
-51 83 0 5 -7 15 -15 22 -11 10 -11 4 2 -32 9 -24 23 -50 30 -59 8 -10 11 -19
6 -21 -4 -3 -1 -3 7 -1 11 3 12 1 3 -8 -13 -13 -37 -3 -28 12 4 5 0 18 -8 30
-21 29 -30 7 -12 -29 15 -30 38 -43 108 -61 28 -7 52 -5 100 7 55 15 64 21 79
54 19 39 48 67 34 32 -17 -41 -23 -84 -18 -133 6 -63 -4 -66 -19 -6 -6 25 -16
45 -21 45 -12 0 -3 -32 25 -90 16 -32 35 -52 69 -72 59 -34 165 -67 241 -75
32 -3 60 -10 64 -16 3 -6 1 -7 -5 -3 -7 4 -12 2 -12 -3 0 -6 7 -11 15 -11 34
0 93 -70 115 -135 32 -97 26 -233 -13 -257 -6 -3 -23 0 -38 8 -15 8 -30 10
-33 5 -8 -13 49 -34 73 -26 18 5 21 2 21 -23 0 -16 7 -46 15 -66 11 -26 16
-80 17 -198 1 -90 4 -147 6 -128 l4 35 17 -35 c10 -19 35 -66 56 -103 20 -37
35 -70 32 -73 -3 -3 -30 19 -59 50 -30 32 -61 56 -73 56 -20 -1 -20 -1 0 -12
18 -10 95 -87 95 -96 0 -1 6 -35 14 -75 8 -40 17 -93 21 -119 3 -26 11 -50 17
-54 6 -4 8 1 5 12 -3 11 -11 54 -16 97 -6 43 -14 89 -17 103 -3 13 -3 24 0 24
13 0 25 -52 37 -156 6 -58 24 -147 39 -196 16 -50 26 -96 24 -103 -3 -7 5 -15
20 -19 46 -11 137 -150 119 -180 -4 -6 -6 -22 -5 -36 3 -24 2 -24 -13 -6 -8
11 -15 24 -15 30 0 16 -35 85 -43 86 -5 0 -6 -8 -3 -17 13 -49 17 -103 7 -103
-6 0 -11 -5 -11 -11 0 -6 6 -9 14 -6 17 7 29 -54 12 -65 -11 -7 -1 -12 17 -9
5 1 5 -8 2 -20 -5 -14 -4 -19 4 -15 7 5 9 1 5 -8 -3 -9 -1 -16 5 -16 6 0 11
-4 11 -10 0 -5 -4 -10 -9 -10 -12 0 -71 121 -71 144 0 10 -9 16 -25 16 -14 0
-25 -5 -25 -11 0 -6 7 -9 15 -5 11 4 15 -1 15 -18 0 -14 3 -31 6 -39 3 -9 -2
-16 -15 -20 -16 -4 -21 1 -27 27 -8 37 -31 66 -53 66 -14 -1 -14 -2 2 -14 22
-17 24 -78 2 -70 -8 4 -15 14 -15 24 0 45 -23 66 -33 30 -3 -11 -13 -20 -22
-20 -12 0 -15 5 -11 16 3 9 6 20 6 25 0 6 5 7 10 4 14 -9 12 2 -4 28 -15 23
-20 71 -17 170 1 54 2 57 20 47 11 -5 26 -10 33 -10 20 1 -23 30 -44 30 -11 0
-23 14 -33 36 -8 19 -44 84 -79 143 -36 59 -70 120 -76 135 -14 37 -37 157
-45 231 -5 55 -4 58 10 41 33 -42 13 8 -25 62 -33 47 -41 68 -46 122 l-7 65
22 -27 c35 -44 55 -36 85 33 l28 60 39 -52 c25 -34 39 -46 39 -35 0 10 -13 34
-30 53 -16 18 -30 38 -30 43 0 6 -6 10 -14 10 -7 0 -24 -25 -36 -55 -32 -78
-43 -84 -74 -38 -32 47 -34 109 -6 211 11 39 20 76 20 82 0 19 -18 10 -23 -12
-29 -119 -37 -175 -37 -246 0 -53 -5 -93 -14 -111 -15 -28 -30 -84 -41 -154
-4 -24 -11 -37 -19 -35 -20 5 -136 138 -142 164 -4 14 -1 31 6 39 8 10 9 15 2
15 -20 0 -33 -37 -23 -63 12 -32 142 -177 159 -177 7 0 16 8 19 17 5 12 11 -5
19 -47 14 -75 3 -103 -47 -132 -16 -10 -29 -25 -29 -34 0 -10 23 -39 52 -66
48 -45 51 -49 34 -61 -32 -24 -33 -105 -2 -172 14 -32 26 -68 26 -81 0 -13 5
-24 10 -24 17 0 11 40 -16 100 -19 43 -24 69 -22 110 2 29 8 55 14 57 16 5 46
-66 64 -152 5 -22 14 -65 21 -95 15 -71 5 -392 -16 -515 -8 -49 -28 -137 -45
-195 -16 -58 -30 -111 -30 -118 0 -7 -24 -38 -54 -68 -55 -56 -60 -57 -113
-32 -12 6 -33 37 -48 72 -33 74 -84 156 -97 156 -5 0 3 -19 17 -42 14 -24 41
-75 60 -115 34 -73 67 -103 115 -103 29 0 69 29 91 65 l19 30 0 -25 c0 -15 -4
-30 -8 -35 -5 -6 -21 -42 -36 -81 -26 -70 -28 -72 -71 -83 -25 -6 -45 -16 -45
-22 0 -7 7 -8 18 -4 9 4 28 10 42 13 38 7 47 18 72 90 l23 67 3 -50 c2 -27 -2
-76 -8 -108 -6 -31 -8 -62 -4 -69 5 -8 0 -9 -17 -4 -40 13 -129 19 -129 10 0
-5 19 -10 43 -11 23 0 58 -8 78 -16 35 -15 37 -19 59 -111 36 -149 18 -193
-88 -217 -29 -7 -55 -16 -58 -21 -9 -15 79 3 115 24 18 10 35 18 36 16 2 -2
-5 -30 -15 -62 -12 -36 -32 -73 -53 -95 -27 -28 -39 -55 -57 -121 -26 -99 -40
-122 -40 -63 0 46 -8 73 -21 73 -5 0 -4 -12 1 -26 6 -14 10 -43 10 -64 0 -40
13 -59 26 -39 4 6 20 55 36 108 16 53 38 105 49 116 l21 20 -16 -32 c-41 -81
-111 -395 -104 -460 l4 -36 -18 23 c-22 27 -22 55 -3 135 19 78 18 112 -1 60
-9 -22 -18 -74 -21 -115 -4 -61 -3 -78 10 -88 9 -8 13 -21 10 -29 -5 -12 -2
-15 10 -10 20 7 22 -4 5 -21 -9 -9 -9 -12 -1 -12 7 0 15 5 18 11 4 6 20 -7 37
-31 17 -22 29 -43 27 -45 -2 -2 -63 -5 -134 -7 l-130 -3 -3 27 c-2 15 4 38 13
52 13 20 15 37 10 76 -4 30 -3 56 3 63 18 22 40 130 52 259 11 108 10 141 -3
225 -9 54 -17 116 -18 138 -3 60 3 133 8 110 11 -44 23 -37 23 12 0 35 6 58
20 76 22 28 25 37 10 37 -5 0 -16 -12 -24 -27 -13 -27 -14 -26 -13 32 0 38 -6
72 -17 93 -10 19 -22 57 -27 85 -17 95 -39 311 -39 387 0 41 -7 104 -15 140
-9 36 -18 124 -20 195 -3 72 -7 147 -10 169 l-3 38 26 -25 c52 -48 84 -57 189
-55 l98 1 -101 7 c-138 8 -196 44 -213 131 l-9 44 -1 -41 c-1 -31 -8 -47 -33
-72 -49 -47 -95 -62 -195 -63 -94 -1 -83 -16 13 -18 71 -1 141 22 180 60 l34
33 0 -76 c0 -95 -16 -257 -36 -367 -9 -46 -13 -92 -11 -102 3 -11 1 -19 -4
-19 -21 0 -64 -60 -104 -146 -46 -97 -77 -124 -127 -109 -22 7 -22 6 -6 -10
36 -38 106 9 141 95 24 61 78 150 90 150 14 0 7 -156 -13 -269 -22 -126 -37
-181 -51 -181 -5 0 -9 -9 -9 -20 0 -24 -8 -25 -34 -5 -11 8 -34 15 -50 14
l-31 -1 35 -10 c56 -16 74 -40 94 -127 14 -59 17 -103 13 -177 -10 -166 -15
-186 -73 -248 l-51 -54 -22 39 c-12 21 -44 63 -72 93 -41 45 -54 68 -70 127
-11 40 -18 79 -16 88 3 11 5 9 6 -6 0 -12 4 -24 9 -26 4 -3 7 27 7 66 0 60 5
80 28 121 15 27 26 51 24 53 -8 7 -37 -35 -51 -73 -26 -69 -17 -15 10 63 23
66 25 80 15 118 -6 24 -11 81 -11 127 0 86 -17 196 -45 283 -65 207 -95 582
-60 734 32 136 48 187 72 235 26 51 33 118 18 167 -6 21 -2 19 34 -16 25 -24
41 -33 41 -24 0 8 -16 30 -36 49 -36 34 -37 34 -31 101 5 54 1 81 -19 143 -20
64 -24 96 -23 194 1 113 2 115 14 72 7 -25 18 -65 24 -90 10 -42 10 -41 5 25
-3 41 -15 92 -29 125 -13 30 -32 81 -41 112 -24 79 -36 64 -13 -18 10 -36 21
-92 25 -124 6 -51 3 -63 -21 -104 -15 -25 -30 -46 -34 -46 -4 0 -21 29 -39 65
-17 36 -36 65 -42 65 -5 0 -15 -10 -21 -22 -6 -13 -20 -33 -31 -45 -11 -12
-18 -27 -16 -34 2 -7 17 8 34 34 16 25 32 46 35 47 3 0 18 -27 32 -61 22 -51
30 -60 49 -57 13 2 28 15 36 31 21 43 25 26 13 -48 -7 -49 -19 -81 -45 -119
-39 -55 -46 -77 -19 -55 15 13 16 11 9 -11 -4 -14 -11 -65 -16 -115 -12 -120
-30 -164 -147 -361 -17 -28 -34 -61 -38 -73 -3 -12 -19 -33 -33 -48 -17 -16
-21 -23 -10 -20 35 12 37 -184 1 -210 -15 -12 -15 -13 0 -19 19 -7 23 -44 6
-44 -8 0 -8 -4 1 -15 6 -8 9 -18 6 -24 -3 -5 -1 -11 6 -13 8 -3 6 -7 -5 -11
-13 -5 -17 -1 -17 16 0 37 -20 98 -31 92 -5 -4 -9 -22 -9 -41 0 -24 -5 -34
-15 -34 -8 0 -15 -7 -15 -15 0 -8 7 -15 15 -15 8 0 15 -4 15 -10 0 -16 -27
-11 -34 6 -3 9 -6 33 -6 55 0 28 4 39 15 39 8 0 15 5 15 10 0 17 -22 11 -41
-12 -11 -11 -19 -33 -19 -49 0 -22 -4 -26 -20 -22 -16 4 -20 14 -20 52 l-1 46
-31 -73 c-31 -72 -39 -80 -45 -42 -2 12 3 20 12 20 8 0 15 5 15 10 0 6 -4 10
-9 10 -17 0 2 53 22 58 17 4 18 7 4 16 -12 10 -13 21 -5 66 5 30 14 59 19 64
5 6 9 14 9 19 0 17 -70 -46 -76 -69 -3 -12 -12 -25 -20 -28 -15 -6 -20 9 -5
18 5 3 12 17 15 30 9 38 48 91 84 116 17 12 32 28 32 36 0 7 13 53 30 102 19
58 33 125 39 193 9 100 25 168 37 156 4 -3 2 -28 -4 -54 -6 -26 -13 -72 -17
-101 -3 -29 -8 -59 -11 -67 -4 -8 -2 -15 4 -15 6 0 13 24 17 53 3 28 13 87 22
130 14 68 21 83 60 122 24 25 48 45 53 45 6 0 10 5 10 10 0 23 -25 7 -81 -51
-33 -34 -62 -59 -65 -56 -4 3 8 32 26 64 61 109 70 127 70 146 0 10 4 16 9 13
5 -3 6 33 3 82 -3 69 0 106 17 172 11 46 21 92 21 102 0 11 5 15 15 12 18 -7
75 14 75 28 0 6 -8 7 -17 3 -10 -5 -29 -8 -43 -9 -35 -1 -52 49 -45 134 12
141 61 232 134 246 17 4 31 11 31 16 0 6 -10 8 -22 5 -22 -6 -22 -6 -4 8 11 8
36 15 55 15 58 1 120 18 209 60 75 35 84 43 101 82 25 58 33 96 22 102 -5 3
-12 -13 -15 -37 -10 -67 -27 -82 -20 -17 6 51 -1 93 -22 144 -5 14 -4 17 4 12
14 -9 15 -2 3 22 -5 9 -20 56 -35 103 -49 160 -29 272 55 299 22 7 39 17 39
21 0 32 183 35 242 4z m105 -345 c-6 -48 -24 -96 -33 -87 -3 2 0 16 6 31 5 15
10 45 10 67 0 22 5 39 11 39 8 0 10 -16 6 -50z m-461 23 c-3 -10 -1 -31 4 -48
l10 -30 -5 33 c-3 20 -1 31 5 27 8 -5 11 -95 2 -95 -2 0 -10 16 -18 35 -16 40
-19 95 -3 95 6 0 8 -8 5 -17z m431 -45 c-3 -8 -6 -5 -6 6 -1 11 2 17 5 13 3
-3 4 -12 1 -19z m-67 -71 c0 -2 -10 -12 -22 -23 l-23 -19 19 23 c18 21 26 27
26 19z m266 -1197 c-16 -49 -24 -66 -25 -49 -1 37 42 170 46 144 2 -12 -7 -54
-21 -95z m-18 -310 c-1 -33 -5 -60 -9 -60 -11 0 -49 50 -49 65 0 6 11 17 25
23 14 6 25 16 25 22 0 5 2 10 5 10 3 0 4 -27 3 -60z m-1336 -522 c-7 -7 -12
-8 -12 -2 0 14 12 26 19 19 2 -3 -1 -11 -7 -17z m1915 -40 c-3 -8 -6 -5 -6 6
-1 11 2 17 5 13 3 -3 4 -12 1 -19z m-1943 -20 c-9 -31 -14 -35 -24 -18 -6 9
-3 18 8 27 23 17 24 16 16 -9z m-37 -40 c-3 -8 -6 -5 -6 6 -1 11 2 17 5 13 3
-3 4 -12 1 -19z m1767 -72 c-3 -14 -10 -26 -14 -26 -12 0 -8 44 4 52 15 10 18
4 10 -26z m76 -21 c0 -8 -7 -15 -15 -15 -26 0 -18 20 13 29 1 1 2 -6 2 -14z
m80 -17 c0 -10 -7 -18 -15 -18 -8 0 -15 8 -15 18 0 10 7 19 15 19 8 0 15 -9
15 -19z m-1770 -14 c0 -8 -9 -14 -19 -14 -14 0 -18 5 -14 19 6 22 33 17 33 -5z
m1680 2 c0 -3 -4 -8 -10 -11 -5 -3 -10 -1 -10 4 0 6 5 11 10 11 6 0 10 -2 10
-4z m-1605 -16 c-3 -5 -11 -10 -16 -10 -6 0 -7 5 -4 10 3 6 11 10 16 10 6 0 7
-4 4 -10z m1692 -6 c-3 -3 -12 -4 -19 -1 -8 3 -5 6 6 6 11 1 17 -2 13 -5z
m-1777 -14 c0 -5 -7 -10 -15 -10 -8 0 -15 5 -15 10 0 6 7 10 15 10 8 0 15 -4
15 -10z m1685 0 c3 -5 1 -10 -4 -10 -6 0 -11 5 -11 10 0 6 2 10 4 10 3 0 8 -4
11 -10z m-1595 -4 c0 -3 -4 -8 -10 -11 -5 -3 -10 -1 -10 4 0 6 5 11 10 11 6 0
10 -2 10 -4z m-100 -26 c0 -5 -5 -10 -11 -10 -5 0 -7 5 -4 10 3 6 8 10 11 10
2 0 4 -4 4 -10z m605 -1311 c47 -71 61 -82 72 -51 3 9 22 33 42 53 l37 36 2
-72 c2 -92 25 -237 48 -295 9 -26 16 -68 15 -97 -1 -34 4 -61 14 -77 9 -14 15
-35 13 -48 -3 -23 -5 -23 -136 -23 -74 0 -136 3 -138 7 -2 3 11 24 30 47 27
32 35 37 40 24 4 -9 9 -13 12 -10 3 3 0 15 -6 27 -11 20 -10 21 9 15 24 -7 29
10 5 19 -11 4 -14 14 -9 35 11 50 -54 333 -100 437 -14 31 -25 59 -25 61 0 14
34 -26 75 -88z"/>
<path d="M4924 4650 c3 -25 1 -63 -3 -85 -5 -22 -9 -31 -10 -20 -1 14 -7 8
-21 -20 -11 -22 -20 -40 -20 -40 0 -1 7 -2 16 -2 38 0 72 156 43 197 -8 11 -9
3 -5 -30z m-23 -143 c-10 -9 -11 -8 -5 6 3 10 9 15 12 12 3 -3 0 -11 -7 -18z"/>
<path d="M4640 4510 c0 -19 27 -64 54 -89 14 -14 26 -32 26 -41 0 -17 19 -40
33 -40 5 0 1 7 -7 16 -9 8 -16 24 -16 33 0 10 -9 30 -21 45 -11 15 -25 39 -30
54 l-9 27 4 -27 c2 -15 -1 -25 -5 -22 -5 3 -9 14 -9 24 0 10 -4 22 -10 25 -5
3 -10 1 -10 -5z"/>
<path d="M4766 4467 c3 -10 9 -15 12 -12 3 3 0 11 -7 18 -10 9 -11 8 -5 -6z"/>
<path d="M4844 4456 c-8 -11 -14 -30 -13 -41 0 -16 3 -14 14 10 7 17 19 30 26
30 7 0 14 5 16 11 6 19 -28 11 -43 -10z"/>
<path d="M4660 4054 c0 -3 14 -17 32 -32 17 -15 46 -58 63 -96 18 -37 35 -64
38 -59 9 15 -61 150 -89 172 -26 21 -44 27 -44 15z"/>
<path d="M4856 3946 c-15 -52 -21 -94 -11 -85 11 12 42 130 35 134 -5 3 -16
-19 -24 -49z"/>
<path d="M4655 3751 c-3 -5 -2 -12 3 -15 5 -3 9 1 9 9 0 17 -3 19 -12 6z"/>
<path d="M4646 3685 c3 -13 -2 -46 -11 -74 -20 -60 -49 -75 -116 -58 -46 11
-129 84 -129 112 0 8 -4 15 -10 15 -18 0 -11 -26 18 -63 16 -22 52 -50 89 -68
69 -35 99 -34 138 5 24 24 49 114 39 141 -10 25 -25 17 -18 -10z"/>
<path d="M4920 3673 c0 -47 32 -118 58 -132 31 -17 78 -13 121 8 63 33 139
131 101 131 -5 0 -10 -6 -10 -14 0 -44 -101 -116 -163 -116 -51 0 -89 54 -89
128 0 17 -4 32 -9 32 -5 0 -9 -17 -9 -37z"/>
<path d="M4755 3593 c-9 -65 -8 -328 1 -356 9 -28 -14 -73 -51 -102 -19 -14
-38 -25 -44 -25 -5 0 -13 -4 -16 -10 -14 -23 37 -7 70 21 60 53 64 67 54 219
-7 124 -5 230 7 288 2 12 0 22 -5 22 -5 0 -12 -26 -16 -57z"/>
<path d="M5165 3551 c-3 -5 -2 -12 3 -15 5 -3 9 1 9 9 0 17 -3 19 -12 6z"/>
<path d="M4531 3220 c-12 -17 -38 -38 -56 -47 -19 -9 -32 -20 -29 -25 3 -4 15
-3 27 3 26 14 97 80 97 91 0 17 -17 7 -39 -22z"/>
<path d="M4815 3190 c9 -46 40 -78 88 -92 30 -9 37 -16 33 -30 -3 -12 0 -18 7
-15 17 5 15 39 -3 47 -81 38 -94 47 -104 77 -16 46 -30 54 -21 13z"/>
<path d="M4977 3159 c7 -9 10 -19 6 -23 -4 -4 1 -4 10 0 10 3 17 7 15 8 -2 1
-12 8 -23 16 -18 14 -19 13 -8 -1z"/>
<path d="M4097 3033 c-4 -3 -7 -29 -7 -57 0 -28 -11 -90 -24 -138 -13 -48 -21
-90 -18 -93 11 -11 53 149 59 223 6 69 4 80 -10 65z"/>
<path d="M5332 3028 c7 -20 34 -31 61 -24 40 10 33 26 -8 19 -23 -4 -35 -2
-35 6 0 6 -5 11 -11 11 -6 0 -9 -5 -7 -12z"/>
<path d="M5485 2973 c6 -62 41 -212 51 -222 15 -15 12 17 -6 75 -11 37 -23
101 -27 141 -3 40 -10 73 -16 73 -6 0 -7 -25 -2 -67z"/>
<path d="M4234 3019 c-3 -6 -19 -9 -35 -5 -32 6 -40 -9 -9 -17 28 -7 60 3 60
19 0 17 -6 18 -16 3z"/>
<path d="M4503 2785 c-35 -24 -98 -145 -76 -145 5 0 14 15 21 33 7 18 28 52
48 76 39 45 41 60 7 36z"/>
<path d="M5120 2786 c0 -2 8 -10 18 -17 15 -13 16 -12 3 4 -13 16 -21 21 -21
13z"/>
<path d="M4773 2758 c-26 -13 -34 -29 -26 -57 8 -30 22 -26 20 6 -1 20 4 31
21 38 12 5 22 13 22 17 0 10 -10 9 -37 -4z"/>
<path d="M4780 2598 c-17 -24 -19 -30 -7 -25 14 5 17 -1 17 -38 0 -24 5 -47
10 -50 6 -4 10 22 10 69 0 42 -1 76 -3 76 -2 0 -14 -14 -27 -32z"/>
<path d="M4723 2595 c0 -8 4 -12 9 -9 5 3 6 10 3 15 -9 13 -12 11 -12 -6z"/>
<path d="M4748 2454 c-5 -4 -8 -18 -8 -31 0 -60 -80 -94 -220 -97 l-85 -1 -3
-32 c-2 -19 1 -33 8 -33 6 0 8 10 4 24 -5 23 -5 23 98 28 115 5 167 23 201 69
17 24 22 91 5 73z"/>
<path d="M4841 2437 c-1 -41 25 -84 62 -103 35 -19 220 -33 230 -18 3 5 -35
10 -83 11 -64 1 -102 7 -134 22 -39 17 -47 25 -60 68 -12 38 -15 42 -15 20z"/>
<path d="M5613 2433 c-9 -3 -12 -25 -11 -66 l2 -62 3 58 c2 31 8 57 12 57 9 0
21 -49 21 -86 0 -13 5 -24 11 -24 12 0 7 58 -8 95 -4 12 -2 16 8 13 7 -2 23
-29 36 -59 12 -30 22 -46 23 -37 0 30 -31 98 -51 108 -19 11 -27 11 -46 3z"/>
<path d="M3913 2403 c-3 -10 -12 -33 -19 -52 -8 -18 -11 -38 -8 -43 4 -6 14
11 23 38 9 26 23 50 31 52 9 3 11 -1 7 -12 -4 -10 -7 -30 -7 -46 0 -19 -6 -30
-17 -33 -17 -4 -17 -4 0 -12 9 -4 25 -4 35 0 11 5 13 9 5 12 -9 3 -11 17 -7
46 11 68 24 67 24 -3 0 -80 12 -72 14 10 l2 60 -38 0 c-28 0 -40 -5 -45 -17z"/>
<path d="M5557 2377 c-4 -10 -7 -28 -7 -40 1 -20 2 -20 11 -4 6 10 9 28 7 40
-3 20 -4 20 -11 4z"/>
<path d="M4024 2360 c3 -14 6 -31 6 -37 0 -7 5 -13 11 -13 13 0 3 50 -13 65
-8 7 -9 2 -4 -15z"/>
<path d="M3915 2260 c3 -5 10 -10 16 -10 5 0 9 5 9 10 0 6 -7 10 -16 10 -8 0
-12 -4 -9 -10z"/>
<path d="M4636 969 c-10 -7 -37 -9 -62 -5 -24 3 -44 2 -44 -3 0 -18 88 -23
119 -6 17 8 31 18 31 20 0 9 -24 5 -44 -6z"/>
<path d="M4937 523 c-3 -5 -8 -35 -11 -68 -4 -33 -14 -81 -22 -108 -9 -26 -14
-53 -11 -60 2 -6 14 18 25 55 29 92 42 221 19 181z"/>
<path d="M4970 347 c0 -25 23 -107 31 -107 12 0 11 4 -3 54 -10 37 -28 70 -28
53z"/>
<path d="M4570 555 c0 -6 7 -31 15 -58 9 -29 12 -66 8 -97 -4 -33 -2 -50 5
-50 6 0 13 10 15 23 2 12 5 4 5 -18 1 -22 -5 -57 -12 -78 -10 -27 -11 -37 -2
-34 6 2 16 25 23 52 13 51 7 101 -24 200 -15 47 -33 81 -33 60z"/>
<path d="M4661 481 c-1 -49 36 -201 49 -201 5 0 2 24 -6 53 -8 28 -21 84 -28
122 -13 65 -14 67 -15 26z"/>
<path d="M5009 4853 c-13 -16 -12 -17 4 -4 16 13 21 21 13 21 -2 0 -10 -8 -17
-17z"/>
<path d="M1886 3987 c3 -10 9 -15 12 -12 3 3 0 11 -7 18 -10 9 -11 8 -5 -6z"/>
<path d="M2066 3087 c3 -10 9 -15 12 -12 3 3 0 11 -7 18 -10 9 -11 8 -5 -6z"/>
<path d="M2295 2281 c-3 -5 -1 -12 5 -16 6 -4 7 -11 4 -17 -4 -7 -2 -8 5 -4 8
6 9 12 2 20 -6 7 -8 16 -4 19 3 4 4 7 0 7 -3 0 -8 -4 -12 -9z"/>
<path d="M485 2111 c-3 -5 -2 -12 3 -15 5 -3 9 1 9 9 0 17 -3 19 -12 6z"/>
<path d="M1570 190 c-9 -6 -10 -10 -3 -10 6 0 15 5 18 10 8 12 4 12 -15 0z"/>
</g>
</svg>
